<?xml version="1.0" standalone="no"?>
<!DOCTYPE svg PUBLIC "-//W3C//DTD SVG 20010904//EN"
 "http://www.w3.org/TR/2001/REC-SVG-20010904/DTD/svg10.dtd">
<svg version="1.0" xmlns="http://www.w3.org/2000/svg"
 width="18.000000pt" height="21.000000pt" viewBox="0 0 18.000000 21.000000"
 preserveAspectRatio="xMidYMid meet">

<g transform="translate(0.000000,21.000000) scale(0.100000,-0.100000)"
fill="#000000" stroke="none">
<path d="M52 188 c-7 -7 -12 -21 -12 -33 0 -29 19 -45 52 -45 36 0 56 36 39
69 -13 23 -59 29 -79 9z"/>
<path d="M17 72 c-10 -10 -17 -28 -17 -40 0 -21 4 -22 85 -22 95 0 110 10 81
55 -14 22 -24 25 -75 25 -43 0 -62 -5 -74 -18z"/>
</g>
</svg>
