<?xml version="1.0" standalone="no"?>
<!DOCTYPE svg PUBLIC "-//W3C//DTD SVG 20010904//EN"
 "http://www.w3.org/TR/2001/REC-SVG-20010904/DTD/svg10.dtd">
<svg version="1.0" xmlns="http://www.w3.org/2000/svg"
 width="264.000000pt" height="945.000000pt" viewBox="0 0 264.000000 945.000000"
 preserveAspectRatio="xMidYMid meet">

<g transform="translate(0.000000,945.000000) scale(0.100000,-0.100000)"
fill="#000000" stroke="none">
<path d="M15 9173 c4 -48 12 -133 20 -188 8 -55 16 -134 20 -175 3 -41 12
-133 20 -205 7 -71 21 -202 30 -290 9 -88 24 -239 35 -335 11 -96 27 -247 35
-335 9 -88 25 -236 35 -330 11 -93 26 -242 35 -330 9 -88 25 -236 35 -330 10
-93 26 -242 35 -330 25 -258 45 -448 65 -630 10 -93 26 -242 35 -330 8 -88 24
-236 35 -330 10 -93 26 -244 35 -335 9 -91 22 -217 30 -280 8 -63 17 -146 20
-185 3 -38 12 -128 20 -200 8 -71 21 -204 30 -295 9 -91 22 -217 30 -280 8
-63 17 -146 20 -185 6 -73 21 -216 54 -520 11 -99 27 -252 36 -340 9 -88 25
-236 35 -330 10 -93 26 -242 35 -330 25 -258 45 -448 65 -630 10 -93 26 -242
35 -330 9 -88 24 -239 35 -335 11 -96 24 -222 30 -280 18 -179 13 -168 73
-163 29 2 126 13 217 23 91 10 239 26 330 35 91 9 244 25 340 35 331 36 455
49 538 56 45 3 82 8 82 10 0 3 -12 23 -27 47 -15 23 -32 50 -38 59 -5 10 -37
61 -70 115 -33 54 -71 118 -83 143 -13 25 -34 63 -47 85 -64 111 -216 428
-279 580 -20 50 -41 99 -46 110 -18 38 -82 210 -102 275 -11 36 -28 88 -38
115 -20 57 -41 123 -64 210 -9 33 -26 89 -37 125 -10 36 -19 71 -19 79 0 8 -6
37 -14 65 -14 48 -41 171 -65 296 -6 30 -18 100 -26 155 -8 55 -19 127 -25
160 -59 348 -72 1097 -24 1465 2 14 6 50 9 80 11 107 16 146 30 220 7 41 21
122 31 180 9 58 24 139 34 180 10 41 26 111 35 155 16 72 27 113 70 265 7 25
20 70 28 100 9 30 24 87 35 125 39 138 81 379 92 533 29 369 -4 750 -92 1067
-11 39 -26 95 -35 125 -8 30 -21 71 -28 90 -100 261 -117 299 -215 485 -23 44
-51 92 -61 107 -11 14 -19 28 -19 31 0 14 -111 176 -201 295 -107 140 -303
347 -429 453 -102 85 -166 136 -195 155 -17 10 -32 21 -35 25 -26 30 -297 192
-445 264 -66 32 -124 61 -128 63 -5 2 -5 -36 -2 -85z"/>
</g>
</svg>
