<?xml version="1.0" standalone="no"?>
<!DOCTYPE svg PUBLIC "-//W3C//DTD SVG 20010904//EN"
 "http://www.w3.org/TR/2001/REC-SVG-20010904/DTD/svg10.dtd">
<svg version="1.0" xmlns="http://www.w3.org/2000/svg"
 width="29.000000pt" height="25.000000pt" viewBox="0 0 29.000000 25.000000"
 preserveAspectRatio="xMidYMid meet">

<g transform="translate(0.000000,25.000000) scale(0.100000,-0.100000)"
fill="#000000" stroke="none">
<path d="M57 223 c-4 -3 -7 -39 -7 -80 l0 -73 115 0 115 0 0 80 0 80 -108 0
c-60 0 -112 -3 -115 -7z m67 -22 c9 -14 -4 -41 -19 -41 -18 0 -28 17 -21 35 6
17 32 20 40 6z m103 -33 c13 -13 23 -33 23 -50 l0 -28 -85 0 c-66 0 -85 3 -85
14 0 19 25 37 42 31 8 -3 27 8 43 25 16 16 31 30 34 30 2 0 15 -10 28 -22z"/>
<path d="M4 166 c-3 -7 -4 -42 -2 -77 l3 -64 113 -3 c72 -2 112 1 112 8 0 6
-33 10 -83 10 -103 0 -117 11 -117 88 0 49 -14 69 -26 38z"/>
</g>
</svg>
