<?xml version="1.0" standalone="no"?>
<!DOCTYPE svg PUBLIC "-//W3C//DTD SVG 20010904//EN"
 "http://www.w3.org/TR/2001/REC-SVG-20010904/DTD/svg10.dtd">
<svg version="1.0" xmlns="http://www.w3.org/2000/svg"
 width="24.000000pt" height="21.000000pt" viewBox="0 0 24.000000 21.000000"
 preserveAspectRatio="xMidYMid meet">

<g transform="translate(0.000000,21.000000) scale(0.100000,-0.100000)"
fill="#000000" stroke="none">
<path d="M65 146 c-63 -56 -54 -70 11 -17 53 45 45 46 116 -18 31 -27 51 -22
25 7 -10 10 -17 31 -17 45 0 17 -5 27 -15 27 -8 0 -15 -7 -15 -17 0 -15 -1
-15 -18 0 -26 24 -31 22 -87 -27z"/>
<path d="M82 112 c-24 -20 -32 -35 -32 -59 0 -28 3 -33 25 -33 20 0 25 5 25
25 0 33 37 35 42 3 2 -17 11 -24 31 -26 25 -3 27 0 27 30 0 26 -8 39 -34 61
-19 15 -39 27 -43 27 -4 0 -23 -13 -41 -28z"/>
</g>
</svg>
