<?xml version="1.0" standalone="no"?>
<!DOCTYPE svg PUBLIC "-//W3C//DTD SVG 20010904//EN"
 "http://www.w3.org/TR/2001/REC-SVG-20010904/DTD/svg10.dtd">
<svg version="1.0" xmlns="http://www.w3.org/2000/svg"
 width="17.000000pt" height="21.000000pt" viewBox="0 0 17.000000 21.000000"
 preserveAspectRatio="xMidYMid meet">

<g transform="translate(0.000000,21.000000) scale(0.100000,-0.100000)"
fill="#000000" stroke="none">
<path d="M60 176 c0 -29 22 -39 46 -22 24 18 11 46 -21 46 -20 0 -25 -5 -25
-24z"/>
<path d="M10 142 c0 -14 58 -52 80 -52 23 0 78 45 68 56 -4 3 -23 0 -43 -7
-28 -11 -40 -11 -55 -1 -22 14 -50 16 -50 4z"/>
<path d="M34 55 c-7 -18 13 -45 33 -45 10 0 13 6 9 16 -3 9 -6 22 -6 30 0 19
-29 18 -36 -1z"/>
<path d="M109 66 c-1 -3 -2 -9 -3 -13 -1 -5 -5 -14 -10 -21 -11 -19 2 -28 22
-16 20 13 23 45 5 52 -7 2 -14 1 -14 -2z"/>
</g>
</svg>
