<?xml version="1.0" standalone="no"?>
<!DOCTYPE svg PUBLIC "-//W3C//DTD SVG 20010904//EN"
 "http://www.w3.org/TR/2001/REC-SVG-20010904/DTD/svg10.dtd">
<svg version="1.0" xmlns="http://www.w3.org/2000/svg"
 width="23.000000pt" height="21.000000pt" viewBox="0 0 23.000000 21.000000"
 preserveAspectRatio="xMidYMid meet">

<g transform="translate(0.000000,21.000000) scale(0.100000,-0.100000)"
fill="#000000" stroke="none">
<path d="M0 105 l0 -95 75 0 c43 0 75 4 75 10 0 9 -30 13 -92 12 -31 -1 -36 9
-12 29 9 7 18 9 22 3 11 -15 32 -15 32 -1 0 8 11 24 25 37 33 31 32 40 -5 40
-27 0 -30 3 -30 30 0 29 -2 30 -45 30 l-45 0 0 -95z"/>
<path d="M100 180 c0 -15 7 -20 27 -20 25 0 26 0 8 20 -10 11 -22 20 -27 20
-4 0 -8 -9 -8 -20z"/>
<path d="M192 138 c6 -18 28 -21 28 -4 0 9 -7 16 -16 16 -9 0 -14 -5 -12 -12z"/>
<path d="M147 102 c-15 -16 -27 -33 -27 -40 0 -21 25 -13 54 16 22 24 24 31
13 40 -11 9 -19 5 -40 -16z"/>
</g>
</svg>
